<svg width="100" height="71" viewBox="0 0 100 71" fill="none" xmlns="http://www.w3.org/2000/svg">
<path d="M48.4634 0.065903C52.7693 -0.29994 57.1913 0.867273 60.7496 3.32074C64.5793 5.91794 67.4059 9.95673 68.5078 14.4528C69.7897 19.489 68.8736 25.0303 66.0369 29.3842C63.2132 33.799 58.4979 36.9522 53.3282 37.8348C47.8681 38.8322 42.0161 37.2832 37.7755 33.7002C34.4524 30.9361 32.1049 27.0163 31.2876 22.767C30.5879 19.2944 30.9 15.6273 32.1572 12.3158C33.5698 8.54998 36.2279 5.27336 39.5989 3.08411C42.2397 1.35797 45.3174 0.305443 48.4634 0.065903ZM48.6434 2.8344C47.0043 4.96268 45.3769 7.21872 44.6931 9.85656C43.3488 9.48056 41.9421 9.35425 40.5484 9.40071C38.6582 9.49362 36.7665 9.67799 34.9112 10.0598C34.5817 10.0467 34.615 10.4445 34.705 10.6565C35.203 12.0473 35.7764 13.4119 36.4254 14.7403C37.2021 16.3053 38.1022 17.8441 39.3754 19.0607C37.4111 20.9843 36.2788 23.5568 35.2407 26.0567C35.0128 26.6984 34.66 27.3183 34.6397 28.0137C36.5909 28.3883 38.5696 28.6786 40.5614 28.6917C41.9464 28.7193 43.3546 28.6844 44.6859 28.2561C45.1098 29.9547 45.9794 31.4965 46.9347 32.9468C47.8754 34.3114 48.8466 35.6703 50.0008 36.8636C50.7354 36.1871 51.3088 35.361 51.9258 34.5815C53.3413 32.6492 54.7495 30.6138 55.3302 28.2547C57.0737 28.8151 58.9291 28.7091 60.7336 28.651C62.2899 28.5392 63.8375 28.3171 65.3676 28.0195C65.3459 27.1949 64.9031 26.4632 64.6374 25.6996C63.6299 23.3216 62.5265 20.8754 60.632 19.0622C61.5263 18.2274 62.2318 17.2184 62.8416 16.1644C63.7547 14.5733 64.4821 12.8835 65.1295 11.1704C65.2457 10.8438 65.4054 10.5113 65.3575 10.1542C65.1774 10.0714 64.9844 10.025 64.7927 9.98722C62.978 9.66057 61.1401 9.46894 59.2978 9.3949C57.9608 9.36732 56.6135 9.49362 55.3244 9.85801C54.7901 7.64553 53.4995 5.71905 52.1871 3.89564C51.4946 2.98974 50.8312 2.05046 50.0037 1.2607C49.497 1.73833 49.0775 2.29435 48.6434 2.8344ZM51.7022 1.387C51.6442 1.55541 51.6253 1.73397 51.5992 1.91109C51.9577 1.99674 52.3207 2.06207 52.6865 2.11869C56.3624 2.68197 59.8219 4.50393 62.4031 7.17516C62.92 7.69489 63.3424 8.29882 63.8404 8.83597C64.0988 9.13358 64.5111 8.72419 64.3122 8.42803C63.9188 7.78635 63.3802 7.24775 62.8692 6.70044C60.1674 3.86225 56.4901 1.98948 52.6168 1.41459C52.3149 1.37248 52.0042 1.32022 51.7022 1.387ZM35.5166 8.68499C35.5935 8.79097 35.746 9.00293 35.8229 9.10745C36.0334 8.96808 36.2439 8.82146 36.3963 8.61676C38.8818 5.33869 42.607 3.0362 46.6385 2.23919C47.2337 2.09546 47.903 2.13466 48.4096 1.73833C48.2267 1.61638 48.1048 1.28538 47.8406 1.35797C42.9568 1.93577 38.3344 4.64184 35.5166 8.68499ZM45.7152 4.38053C43.3749 5.07302 41.2046 6.33024 39.4349 8.00992C39.2302 8.19139 39.1053 8.43674 38.9921 8.68209C39.4654 8.62111 39.7644 8.23204 40.1027 7.94169C41.7577 6.45074 43.764 5.35756 45.9025 4.74201C46.1086 4.63894 46.5558 4.63168 46.412 4.26584C46.1754 4.27455 45.9417 4.3152 45.7152 4.38053ZM53.5213 4.27745C53.6287 4.57942 53.906 4.69846 54.1905 4.76669C56.4335 5.41418 58.5226 6.60172 60.2182 8.20881C60.4462 8.42948 60.7017 8.63128 61.0254 8.69515C60.918 8.43529 60.7844 8.18704 60.5739 7.99831C59.0902 6.58285 57.3162 5.4737 55.3984 4.74927C54.793 4.52425 54.176 4.28471 53.5213 4.27745ZM42.7667 7.71522C42.3747 7.97944 41.8971 8.19865 41.7461 8.68935C42.5431 8.39609 43.1673 7.78635 43.9397 7.44083C44.3621 7.18097 44.9675 7.10983 45.1621 6.58575C44.2881 6.77303 43.5216 7.26082 42.7667 7.71522ZM54.8496 6.75415C55.3999 7.15484 56.0459 7.38422 56.6251 7.73554C57.2 8.05638 57.7082 8.49045 58.3135 8.75758C58.2395 8.5674 58.2032 8.34383 58.013 8.23204C57.457 7.80523 56.8444 7.45825 56.2332 7.12C55.8035 6.90514 55.3534 6.58865 54.8496 6.75415ZM65.6769 11.8339C65.8598 12.5873 66.2184 13.2813 66.4303 14.0275C67.3594 17.05 67.4378 20.3266 66.6321 23.3855C66.4114 24.3204 66.0238 25.2016 65.7291 26.1119C65.8453 26.1772 66.079 26.3079 66.1966 26.3732C66.6597 25.762 66.8397 25.0042 67.0836 24.2914C68.2973 20.2918 68.0853 15.8494 66.4056 12.0124C66.3113 11.6364 65.9483 11.7366 65.6769 11.8339ZM33.7469 26.4182C33.9603 26.366 34.3784 26.4473 34.2942 26.1017C34.1302 25.4165 33.7817 24.7864 33.6017 24.1027C32.5318 20.6402 32.5971 16.8381 33.8035 13.4177C33.9617 12.9532 34.1868 12.5075 34.2666 12.0182C34.1011 11.9166 33.9255 11.8339 33.7425 11.77C31.623 16.3459 31.6723 21.835 33.7469 26.4182ZM35.1362 22.6364C35.2117 22.8846 35.2364 23.191 35.4948 23.3332C35.7039 23.1271 35.5863 22.8498 35.5456 22.6059C34.9504 20.2482 34.978 17.7454 35.5688 15.3907C35.6719 15.1192 35.6342 14.8854 35.3424 14.7737C34.5758 17.3128 34.541 20.0581 35.1362 22.6364ZM64.4037 14.9246C64.424 15.3718 64.5648 15.7986 64.6519 16.2341C65.012 18.1359 65.012 20.106 64.6272 22.0049C64.5227 22.4709 64.3543 22.9442 64.4821 23.4261C64.9292 22.9805 64.951 22.3214 65.0773 21.7421C65.4533 19.4614 65.4141 17.0573 64.6824 14.8521C64.6127 14.8709 64.4733 14.9072 64.4037 14.9246ZM36.6998 20.9044C36.7767 20.8827 36.9335 20.8362 37.0104 20.813C36.9103 19.9245 36.8406 19.0273 36.9393 18.1345C36.9669 17.757 37.0801 17.3331 36.7854 17.0195C36.4355 18.2768 36.5256 19.6254 36.6998 20.9044ZM63.023 17.2896C63.1595 18.3406 63.1697 19.4048 63.0608 20.4587C63.0289 20.6939 63.1406 20.9102 63.2031 21.1309C63.6647 19.9056 63.4426 18.5526 63.386 17.2765C63.2945 17.2809 63.1145 17.2867 63.023 17.2896ZM35.6748 29.2201C35.6821 29.4698 35.6734 29.7456 35.8665 29.9387C38.8295 33.8062 43.449 36.402 48.3153 36.8012C48.3574 36.6096 48.3995 36.4179 48.4401 36.2277C47.842 36.0652 47.2221 36.01 46.6167 35.8808C42.562 35.0852 38.8527 32.7348 36.3499 29.4553C36.212 29.1983 35.9216 29.2274 35.6748 29.2201ZM63.219 30.0316C60.6378 33.1558 56.9024 35.3073 52.9057 35.9751C52.5022 36.0434 52.0986 36.1145 51.7051 36.2277C51.7603 36.4063 51.8126 36.5892 51.8895 36.762C52.431 36.8041 52.9624 36.6517 53.4923 36.5587C57.7227 35.7371 61.6047 33.3025 64.2149 29.8778C64.3499 29.7021 64.4617 29.5047 64.4603 29.2753C64.3311 29.1069 64.1699 29.0546 63.9754 29.1199C63.688 29.3929 63.4745 29.7311 63.219 30.0316ZM41.6532 29.4321C41.7925 29.6556 41.9566 29.869 42.1802 30.0157C43.0469 30.6182 43.9673 31.1582 44.9646 31.5153C44.9777 31.4369 45.0053 31.2773 45.0183 31.1989C44.3084 30.878 43.6 30.5441 42.951 30.11C42.5387 29.8473 42.1584 29.4959 41.6532 29.4321ZM57.6646 29.7166C56.8327 30.3133 55.9327 30.8156 54.9847 31.2032C54.9876 31.2889 54.9934 31.4616 54.9963 31.5473C56.2012 31.058 57.4425 30.486 58.3469 29.5264C58.1001 29.5134 57.8562 29.5526 57.6646 29.7166ZM38.9703 29.4843C39.1227 29.7485 39.3042 29.9997 39.5321 30.2044C41.3178 31.8623 43.4896 33.1065 45.8357 33.7743C46.0825 33.8948 46.3264 33.767 46.563 33.6872C46.0302 33.3692 45.4147 33.2516 44.8427 33.0324C43.1107 32.3907 41.4949 31.4268 40.1187 30.1957C39.7702 29.9068 39.4842 29.4437 38.9703 29.4843ZM59.7406 30.351C58.0725 31.797 56.0677 32.8437 53.9437 33.4375C53.7303 33.4709 53.5968 33.6088 53.6055 33.8411C53.8421 33.8512 54.0788 33.8135 54.3067 33.7467C56.6324 33.0513 58.8013 31.8159 60.5609 30.1405C60.7772 29.9503 60.918 29.6948 61.0124 29.4248C60.4767 29.554 60.1457 30.0186 59.7406 30.351Z" fill="#00A886"/>
<path d="M50.1684 2.43164C50.5604 2.88749 50.9248 3.36512 51.3037 3.83114C50.9132 4.03438 50.5328 4.2536 50.1626 4.49168C50.1554 3.805 50.151 3.11832 50.1684 2.43164Z" fill="#00A886"/>
<path d="M48.7188 3.83074C49.0948 3.36908 49.4621 2.90161 49.8395 2.44141C49.8526 3.11938 49.8482 3.79735 49.8497 4.47532C49.4809 4.24304 49.1035 4.02963 48.7188 3.83074Z" fill="#00A886"/>
<path d="M47.25 5.95506C47.6507 5.32209 48.0819 4.7109 48.5305 4.11133C48.979 4.35668 49.5118 4.54105 49.8109 4.98093C49.9096 5.82586 49.8211 6.68384 49.8545 7.53457C49.1329 6.79273 48.1951 6.33832 47.25 5.95506Z" fill="#00A886"/>
<path d="M50.2046 5.0753C50.4239 4.55411 51.0379 4.37264 51.4938 4.11133C51.9467 4.70655 52.3692 5.325 52.7713 5.95651C51.819 6.33542 50.8855 6.80579 50.1596 7.54619C50.1829 6.72304 50.0958 5.89264 50.2046 5.0753Z" fill="#00A886"/>
<path d="M50.7779 7.43308C51.4094 6.88141 52.1963 6.55912 52.9614 6.23828C53.3301 6.83495 53.6655 7.45195 53.982 8.08056C52.5287 8.74256 51.0189 9.54103 50.1696 10.9565C50.1798 10.1014 50.1203 9.24342 50.1929 8.39124C50.2146 7.99345 50.4977 7.68568 50.7779 7.43308Z" fill="#00A886"/>
<path d="M46.0391 8.08156C46.3541 7.45295 46.6924 6.83741 47.0655 6.24219C48.0759 6.67626 49.2504 7.10743 49.7962 8.13528C49.9153 9.05569 49.8093 9.99353 49.8456 10.9212C48.9716 9.53913 47.4937 8.72469 46.0391 8.08156Z" fill="#00A886"/>
<path d="M45.9052 8.38672C47.4339 9.08211 49.1572 9.95317 49.7771 11.6285C49.931 12.7681 49.8177 13.9339 49.825 15.0851C49.1427 12.8814 47.4615 11.0565 45.3594 10.1288C45.4654 9.52635 45.6744 8.95 45.9052 8.38672Z" fill="#00A886"/>
<path d="M51.2776 10.1143C52.0935 9.34192 53.1126 8.84252 54.1245 8.38086C54.3539 8.9485 54.5513 9.5292 54.6863 10.1273C52.5595 11.0477 50.8537 12.9002 50.1917 15.1301C50.1569 14.14 50.138 13.147 50.1815 12.1569C50.1961 11.3439 50.7071 10.6485 51.2776 10.1143Z" fill="#00A886"/>
<path d="M37.8064 10.2897C38.5512 10.2201 39.2959 10.1504 40.0407 10.0938C39.8984 11.1085 39.8316 12.1509 40.1017 13.1541C39.4774 12.781 38.8343 12.4412 38.2158 12.0609C37.5713 11.7255 37.7905 10.8777 37.8064 10.2897Z" fill="#00A886"/>
<path d="M60.0061 10.0938C60.7479 10.1518 61.4898 10.2084 62.2287 10.3057C62.236 10.8211 62.3841 11.4221 62.0661 11.8722C61.3983 12.373 60.6245 12.7113 59.9219 13.1599C60.2035 12.1567 60.1135 11.1143 60.0061 10.0938Z" fill="#00A886"/>
<path d="M40.3924 10.0796C41.0834 10.0985 41.8049 9.9954 42.4742 10.203C42.3203 11.7622 42.3189 13.4085 43.0317 14.8457C42.3552 14.4407 41.6583 14.069 40.9876 13.6538C40.7495 13.5087 40.5419 13.3025 40.4533 13.0325C40.102 12.0845 40.2443 11.0523 40.3924 10.0796Z" fill="#00A886"/>
<path d="M42.8108 10.166C43.4133 10.2531 44.0143 10.3678 44.5964 10.5507C44.3322 12.8314 45.106 15.1455 46.5853 16.8848C45.7549 16.4216 44.9274 15.9527 44.113 15.462C43.6528 15.1978 43.3247 14.7579 43.1374 14.2701C42.6133 12.9723 42.6453 11.5321 42.8108 10.166Z" fill="#00A886"/>
<path d="M55.4249 10.5493C56.0056 10.3664 56.6052 10.2546 57.2076 10.166C57.3644 11.4334 57.3978 12.7531 56.9913 13.9798C56.7924 14.5286 56.5123 15.0991 55.9911 15.4098C55.1331 15.9484 54.2301 16.41 53.375 16.9544C53.9107 16.2779 54.4217 15.5724 54.7672 14.7768C55.3697 13.4615 55.5512 11.9822 55.4249 10.5493Z" fill="#00A886"/>
<path d="M57.5477 10.1237C58.2431 10.0859 58.9399 10.0612 59.6382 10.0772C59.7892 11.0513 59.9256 12.085 59.5816 13.0344C59.477 13.3887 59.1533 13.5934 58.8542 13.7705C58.2329 14.1349 57.6014 14.4833 56.9844 14.8535C57.7291 13.3974 57.7088 11.7104 57.5477 10.1237Z" fill="#00A886"/>
<path d="M35.6875 10.6054C36.2769 10.5067 36.8678 10.4036 37.4615 10.3281C37.4398 10.7637 37.4354 11.1992 37.4528 11.6347C36.8692 11.2834 36.2755 10.948 35.6875 10.6054Z" fill="#00A886"/>
<path d="M62.5625 10.3262C63.1577 10.4031 63.7486 10.5004 64.3351 10.6238C63.7399 10.9475 63.1519 11.2858 62.5698 11.6342C62.5828 11.1972 62.5799 10.7617 62.5625 10.3262Z" fill="#00A886"/>
<path d="M45.2609 10.8262C46.4063 11.4098 47.4574 12.2141 48.1862 13.2854C49.2053 14.7808 49.7381 16.6158 49.6394 18.4247C47.6911 17.4012 46.1073 15.6054 45.5062 13.4713C45.287 12.6089 45.181 11.7132 45.2609 10.8262Z" fill="#00A886"/>
<path d="M52.5549 12.4105C53.1821 11.7427 53.9646 11.2505 54.7688 10.8223C54.9155 12.6645 54.3783 14.5489 53.2401 16.0079C52.4576 16.9966 51.5009 17.8691 50.3642 18.4338C50.2916 16.2533 51.0378 14.0031 52.5549 12.4105Z" fill="#00A886"/>
<path d="M35.5156 10.8984C36.1123 11.2338 36.7003 11.5837 37.3013 11.9103C36.9151 12.1107 36.5391 12.3313 36.1747 12.5694C35.9453 12.0163 35.7247 11.4588 35.5156 10.8984Z" fill="#00A886"/>
<path d="M62.7188 11.9089C63.3154 11.5823 63.899 11.2338 64.4928 10.9043C64.291 11.4647 64.0732 12.0192 63.8424 12.5695C63.478 12.3328 63.1035 12.1107 62.7188 11.9089Z" fill="#00A886"/>
<path d="M36.3203 12.8881C36.7631 12.6181 37.2131 12.168 37.7692 12.2377C38.5342 12.5643 39.2209 13.0507 39.9512 13.447C38.9407 13.6822 38.0813 14.2789 37.2698 14.8959C36.9344 14.2353 36.6121 13.569 36.3203 12.8881Z" fill="#00A886"/>
<path d="M61.9435 12.3719C62.5344 11.9843 63.2181 12.4982 63.6522 12.8989C63.4533 13.6074 63.0701 14.2447 62.7579 14.9052C61.958 14.2853 61.1015 13.7148 60.1172 13.4375C60.7182 13.0702 61.325 12.7102 61.9435 12.3719Z" fill="#00A886"/>
<path d="M37.4219 15.2111C38.2653 14.5622 39.1741 13.8305 40.2804 13.7695C41.24 14.0323 42.0065 14.7364 42.9153 15.1313C41.2647 15.2039 39.8042 16.0619 38.5034 17.0084C38.1187 16.4233 37.7543 15.8252 37.4219 15.2111Z" fill="#00A886"/>
<path d="M59.3712 13.8746C59.7211 13.6888 60.1276 13.7947 60.4847 13.908C61.2716 14.1867 61.9452 14.6992 62.5985 15.2073C62.2646 15.8258 61.906 16.4311 61.5068 17.0104C60.2205 16.0479 58.7528 15.2044 57.1094 15.1304C57.8861 14.7544 58.596 14.2535 59.3712 13.8746Z" fill="#00A886"/>
<path d="M38.7188 17.281C39.9426 16.391 41.3218 15.5084 42.8867 15.4909C43.4515 15.4576 43.9552 15.7436 44.4256 16.0208C45.1239 16.4244 45.812 16.8469 46.5321 17.2127C45.1283 16.9732 43.6591 16.9761 42.2988 17.429C41.4393 17.6933 40.6641 18.1564 39.9048 18.6253C39.4809 18.2028 39.0802 17.7571 38.7188 17.281Z" fill="#00A886"/>
<path d="M56.0424 15.7717C56.6695 15.4001 57.4375 15.448 58.1227 15.6091C59.2972 15.9053 60.3352 16.5688 61.2992 17.2801C60.9435 17.765 60.5356 18.2078 60.1029 18.6245C59.1216 17.9799 58.0574 17.4297 56.8931 17.2119C55.7709 16.9665 54.6109 17.0362 53.4844 17.209C54.3627 16.7793 55.1829 16.2392 56.0424 15.7717Z" fill="#00A886"/>
<path d="M40.5156 19.0496C43.0751 17.2233 46.687 17.3772 49.2741 19.0612C46.6841 20.7365 43.0577 20.9195 40.5156 19.0496Z" fill="#00A886"/>
<path d="M50.9991 18.9071C52.4319 18.0433 54.1407 17.6513 55.8073 17.7544C57.1371 17.8052 58.4001 18.3351 59.5064 19.0479C57.0703 20.8423 53.6137 20.7566 51.0615 19.2526C50.9178 19.212 50.7581 18.9594 50.9991 18.9071Z" fill="#00A886"/>
<path d="M38.7188 20.851C39.0773 20.3574 39.4911 19.9088 39.9353 19.4922C41.3421 20.4939 43.045 21.1051 44.7827 21.0703C45.3518 21.0659 45.9166 20.9788 46.4842 20.9338C45.452 21.4434 44.5185 22.1547 43.4413 22.5699C41.6847 22.8559 40.0834 21.8252 38.7188 20.851Z" fill="#00A886"/>
<path d="M53.5391 20.9203C55.8096 21.3529 58.2253 20.8724 60.0967 19.4961C60.5351 19.9127 60.9474 20.357 61.306 20.8462C60.0386 21.7637 58.5912 22.6958 56.9623 22.6159C56.5398 22.6232 56.1638 22.4054 55.8024 22.2138C55.0445 21.7884 54.3056 21.3297 53.5391 20.9203Z" fill="#00A886"/>
<path d="M46.5153 22.4836C47.3167 21.3251 48.3867 20.3452 49.6381 19.6934C49.7382 21.6126 49.143 23.5696 47.986 25.1055C47.2804 26.0535 46.3077 26.7634 45.2596 27.289C45.1216 25.6064 45.5514 23.8744 46.5153 22.4836Z" fill="#00A886"/>
<path d="M50.3639 19.6855C52.0319 20.5479 53.4111 21.9837 54.1791 23.6982C54.6814 24.8219 54.8513 26.0718 54.7685 27.2957C53.8742 26.8325 53.0206 26.262 52.3571 25.4955C50.9751 23.9145 50.2971 21.7717 50.3639 19.6855Z" fill="#00A886"/>
<path d="M37.4375 22.9188C37.7627 22.2975 38.1314 21.7008 38.5205 21.1172C39.8053 22.0637 41.2585 22.8883 42.8816 23.0088C42.0352 23.4153 41.2847 24.0178 40.4005 24.343C39.2566 24.3619 38.3057 23.575 37.4375 22.9188Z" fill="#00A886"/>
<path d="M53.3594 21.1738C54.1985 21.695 55.0754 22.1523 55.9159 22.6691C56.5808 23.0509 56.9046 23.8044 57.0948 24.5143C57.3822 25.6409 57.343 26.8197 57.1978 27.9652C56.5982 27.878 56.0059 27.7459 55.4223 27.5848C55.672 25.2721 54.9069 22.9087 53.3594 21.1738Z" fill="#00A886"/>
<path d="M57.1406 23.0083C58.7666 22.8936 60.2256 22.0734 61.5046 21.1152C61.8995 21.6959 62.2697 22.2941 62.5949 22.9169C61.7238 23.5716 60.77 24.3657 59.6246 24.3396C58.7419 24.01 57.9928 23.4076 57.1406 23.0083Z" fill="#00A886"/>
<path d="M44.0886 22.6754C44.9248 22.1513 45.8103 21.7114 46.6364 21.1699C45.1222 22.9265 44.3354 25.2697 44.5894 27.5852C44.0044 27.7435 43.412 27.8785 42.8125 27.9656C42.6441 26.5734 42.6078 25.0998 43.1667 23.786C43.3554 23.3345 43.6617 22.9265 44.0886 22.6754Z" fill="#00A886"/>
<path d="M50.1855 22.9805C50.8446 25.2191 52.5562 27.0686 54.683 28.0006C54.5466 28.5973 54.3491 29.178 54.1139 29.7428C52.6433 29.0619 51.0043 28.246 50.3205 26.6795C50.004 25.4789 50.2058 24.2087 50.1855 22.9805Z" fill="#00A886"/>
<path d="M37.2727 23.2246C38.0827 23.8489 38.9494 24.4368 39.957 24.6807C39.1832 25.0741 38.4834 25.6244 37.6632 25.9205C37.1536 25.8537 36.7413 25.5082 36.3203 25.2426C36.6121 24.5588 36.9388 23.8895 37.2727 23.2246Z" fill="#00A886"/>
<path d="M45.3594 27.9993C47.4601 27.0658 49.131 25.2439 49.8293 23.0488C49.8497 24.0273 49.8526 25.0073 49.8453 25.9857C49.8439 26.8481 49.2385 27.5507 48.6374 28.1024C47.8433 28.8225 46.8736 29.303 45.9038 29.7371C45.6744 29.1738 45.4654 28.5989 45.3594 27.9993Z" fill="#00A886"/>
<path d="M60.0547 24.6811C61.0724 24.4445 61.942 23.8449 62.7535 23.2148C63.0932 23.8797 63.4068 24.5577 63.7073 25.2415C63.2602 25.5057 62.8203 25.9471 62.2672 25.8991C61.4905 25.5696 60.8067 25.0586 60.0547 24.6811Z" fill="#00A886"/>
<path d="M40.8652 24.5551C41.5751 24.0819 42.3474 23.7088 43.0675 23.25C42.2618 24.709 42.3765 26.4177 42.4374 28.0205C41.7565 28.0394 41.0742 28.0539 40.3933 28.0437C40.2656 27.2177 40.148 26.3669 40.3222 25.538C40.3992 25.1692 40.5226 24.7642 40.8652 24.5551Z" fill="#00A886"/>
<path d="M56.9688 23.2656C57.7062 23.7258 58.4974 24.1004 59.2117 24.5969C59.4977 24.7827 59.6008 25.1253 59.6806 25.4389C59.8839 26.2969 59.7677 27.1854 59.6327 28.0448C58.9301 28.0579 58.2274 28.0506 57.5306 27.9592C57.7179 26.3869 57.7179 24.7043 56.9688 23.2656Z" fill="#00A886"/>
<path d="M37.9449 26.2666C38.604 25.7527 39.3865 25.4202 40.0906 24.9688C39.8351 25.9574 39.8815 26.9838 40.0311 27.9855C39.2805 27.9666 38.5314 27.9318 37.7881 27.8258C37.7881 27.3133 37.6342 26.7167 37.9449 26.2666Z" fill="#00A886"/>
<path d="M59.9219 24.9629C60.6231 25.4187 61.4085 25.7512 62.069 26.2666C62.3783 26.7195 62.2331 27.3133 62.2215 27.8287C61.4811 27.9303 60.7334 27.968 59.9858 27.984C60.1309 26.9823 60.1846 25.9515 59.9219 24.9629Z" fill="#00A886"/>
<path d="M35.5156 27.2238C35.7276 26.6648 35.9453 26.1088 36.1776 25.5586C36.5449 25.7894 36.918 26.013 37.2984 26.222C36.6945 26.5385 36.1123 26.8957 35.5156 27.2238Z" fill="#00A886"/>
<path d="M62.7344 26.2288C63.1118 26.0154 63.4835 25.7904 63.8493 25.5566C64.0787 26.1069 64.2994 26.66 64.5012 27.2218C63.9088 26.8966 63.334 26.5395 62.7344 26.2288Z" fill="#00A886"/>
<path d="M35.6719 27.5267C36.2656 27.1798 36.8667 26.8444 37.4532 26.4844C37.4343 26.9199 37.4387 27.3554 37.4619 27.791C36.8667 27.6937 36.2671 27.6269 35.6719 27.5267Z" fill="#00A886"/>
<path d="M62.5619 26.4824C63.147 26.8425 63.748 27.1778 64.3433 27.5233C63.7495 27.625 63.1499 27.6946 62.5547 27.7905C62.575 27.3535 62.5779 26.9179 62.5619 26.4824Z" fill="#00A886"/>
<path d="M46.0781 30.0519C47.495 29.3565 48.986 28.5856 49.844 27.1934C49.8367 28.002 49.8571 28.8092 49.844 29.6178C49.8788 30.1549 49.4302 30.5309 49.0586 30.8431C48.4634 31.3047 47.7564 31.5878 47.0682 31.8811C46.7154 31.2859 46.3162 30.7066 46.0781 30.0519Z" fill="#00A886"/>
<path d="M50.1698 27.1699C51.0336 28.5709 52.5231 29.394 53.9865 30.04C53.6671 30.6687 53.3303 31.2886 52.9558 31.8852C52.2052 31.5615 51.4256 31.2494 50.7985 30.7093C50.5139 30.4582 50.225 30.1518 50.196 29.754C50.1176 28.8946 50.1815 28.0308 50.1698 27.1699Z" fill="#00A886"/>
<path d="M47.25 32.1737C48.1922 31.7831 49.1315 31.3273 49.8501 30.584C49.8138 31.4405 49.9212 32.3087 49.7993 33.1565C49.4959 33.5891 48.9718 33.7735 48.5159 34.0014C48.0746 33.4047 47.6521 32.7965 47.25 32.1737Z" fill="#00A886"/>
<path d="M50.1702 30.5645C50.8859 31.3223 51.8325 31.7825 52.7819 32.1745C52.3798 32.7958 51.9588 33.4041 51.5174 33.9979C51.0572 33.7583 50.4649 33.5841 50.2239 33.0862C50.0947 32.2543 50.1949 31.4036 50.1702 30.5645Z" fill="#00A886"/>
<path d="M48.7344 34.2862C49.1118 34.0844 49.4849 33.8725 49.8464 33.6445C49.8493 34.3225 49.8551 35.0019 49.8348 35.6813C49.4603 35.2226 49.093 34.758 48.7344 34.2862Z" fill="#00A886"/>
<path d="M50.159 33.6289C50.5249 33.8641 50.9067 34.0775 51.2929 34.2793C50.9314 34.7598 50.5641 35.236 50.1721 35.6919C50.1489 35.0037 50.1576 34.3156 50.159 33.6289Z" fill="#00A886"/>
<path d="M51.6968 1.38738C51.9988 1.3206 52.3095 1.37287 52.6114 1.41497C56.4847 1.98986 60.162 3.86263 62.8637 6.70082C63.3748 7.24813 63.9134 7.78673 64.3068 8.42841C64.5057 8.72457 64.0934 9.13397 63.835 8.83636C63.337 8.29921 62.9146 7.69528 62.3977 7.17555C59.8165 4.50431 56.357 2.68235 52.6811 2.11907C52.3153 2.06245 51.9523 1.99712 51.5938 1.91147C51.6199 1.73436 51.6388 1.55579 51.6968 1.38738Z" fill="#FDFEFE"/>
<path d="M35.5156 8.68497C38.3335 4.64182 42.9559 1.93575 47.8396 1.35795C48.1038 1.28536 48.2258 1.61636 48.4087 1.73831C47.902 2.13464 47.2328 2.09544 46.6375 2.23916C42.606 3.03618 38.8808 5.33867 36.3954 8.61674C36.243 8.82144 36.0325 8.96806 35.8219 9.10743C35.745 9.00291 35.5926 8.79095 35.5156 8.68497Z" fill="#FDFEFE"/>
<path d="M45.7153 4.38032C45.9418 4.31499 46.1755 4.27434 46.4121 4.26562C46.5558 4.63147 46.1087 4.63873 45.9026 4.7418C43.7641 5.35735 41.7578 6.45052 40.1028 7.94148C39.7645 8.23183 39.4655 8.6209 38.9922 8.68187C39.1054 8.43653 39.2303 8.19118 39.435 8.00971C41.2047 6.33003 43.375 5.0728 45.7153 4.38032Z" fill="#FDFEFE"/>
<path d="M53.5156 4.27734C54.1704 4.2846 54.7874 4.52414 55.3927 4.74917C57.3105 5.47359 59.0846 6.58274 60.5683 7.9982C60.7788 8.18693 60.9123 8.43518 61.0198 8.69504C60.696 8.63117 60.4405 8.42937 60.2126 8.2087C58.5169 6.60161 56.4278 5.41407 54.1849 4.76659C53.9003 4.69835 53.6231 4.57931 53.5156 4.27734Z" fill="#FDFEFE"/>
<path d="M42.7706 7.71541C43.5255 7.261 44.292 6.77321 45.166 6.58594C44.9715 7.11002 44.3661 7.18116 43.9436 7.44102C43.1713 7.78654 42.547 8.39628 41.75 8.68953C41.901 8.19884 42.3786 7.97963 42.7706 7.71541Z" fill="#FDFEFE"/>
<path d="M54.8516 6.75319C55.3553 6.58769 55.8054 6.90418 56.2351 7.11904C56.8463 7.4573 57.4589 7.80427 58.0149 8.23109C58.2051 8.34287 58.2414 8.56644 58.3155 8.75662C57.7101 8.4895 57.202 8.05542 56.6271 7.73458C56.0478 7.38326 55.4018 7.15388 54.8516 6.75319Z" fill="#FDFEFE"/>
<path d="M65.6719 11.8336C65.9434 11.7363 66.3063 11.6362 66.4007 12.0122C68.0803 15.8492 68.2923 20.2915 67.0786 24.2911C66.8347 25.0039 66.6547 25.7618 66.1916 26.3729C66.074 26.3076 65.8403 26.177 65.7241 26.1116C66.0188 25.2014 66.4065 24.3202 66.6271 23.3852C67.4329 20.3264 67.3545 17.0498 66.4253 14.0272C66.2134 13.281 65.8548 12.5871 65.6719 11.8336Z" fill="#FDFEFE"/>
<path d="M33.7469 26.4178C31.6724 21.8346 31.623 16.3455 33.7426 11.7695C33.9255 11.8334 34.1011 11.9162 34.2666 12.0178C34.1868 12.507 33.9618 12.9527 33.8035 13.4173C32.5971 16.8376 32.5318 20.6398 33.6017 24.1022C33.7818 24.786 34.1302 25.4161 34.2942 26.1013C34.3784 26.4468 33.9603 26.3655 33.7469 26.4178Z" fill="#FDFEFE"/>
<path d="M35.1303 22.6362C34.5351 20.0578 34.57 17.3126 35.3365 14.7734C35.6283 14.8852 35.666 15.119 35.563 15.3904C34.9721 17.7452 34.9445 20.248 35.5397 22.6057C35.5804 22.8496 35.698 23.1269 35.4889 23.333C35.2305 23.1907 35.2058 22.8844 35.1303 22.6362Z" fill="#FDFEFE"/>
<path d="M64.4062 14.9242C64.4759 14.9067 64.6153 14.8704 64.685 14.8516C65.4167 17.0568 65.4559 19.4609 65.0799 21.7416C64.9536 22.3209 64.9318 22.98 64.4847 23.4256C64.3569 22.9437 64.5253 22.4704 64.6298 22.0044C65.0145 20.1055 65.0145 18.1354 64.6545 16.2336C64.5674 15.7981 64.4266 15.3713 64.4062 14.9242Z" fill="#FDFEFE"/>
<path d="M36.7006 20.9044C36.5264 19.6254 36.4364 18.2768 36.7862 17.0195C37.0809 17.3331 36.9677 17.757 36.9401 18.1345C36.8414 19.0273 36.9111 19.9245 37.0113 20.813C36.9343 20.8362 36.7775 20.8827 36.7006 20.9044Z" fill="#FDFEFE"/>
<path d="M63.0234 17.2904C63.1149 17.2875 63.2949 17.2817 63.3864 17.2773C63.443 18.5534 63.6651 19.9065 63.2035 21.1318C63.141 20.9111 63.0292 20.6948 63.0612 20.4596C63.1701 19.4056 63.1599 18.3415 63.0234 17.2904Z" fill="#FDFEFE"/>
<path d="M35.6719 29.2207C35.9187 29.228 36.209 29.1989 36.3469 29.4559C38.8498 32.7354 42.559 35.0858 46.6138 35.8814C47.2192 36.0106 47.8391 36.0657 48.4372 36.2283C48.3965 36.4185 48.3544 36.6102 48.3123 36.8018C43.446 36.4026 38.8265 33.8068 35.8635 29.9393C35.6704 29.7462 35.6791 29.4704 35.6719 29.2207Z" fill="#FDFEFE"/>
<path d="M63.217 30.0308C63.4725 29.7302 63.6859 29.392 63.9734 29.119C64.1679 29.0537 64.3291 29.106 64.4583 29.2744C64.4597 29.5038 64.3479 29.7012 64.2129 29.8769C61.6027 33.3016 57.7207 35.7362 53.4902 36.5579C52.9603 36.6508 52.429 36.8032 51.8875 36.7611C51.8106 36.5883 51.7583 36.4054 51.7031 36.2269C52.0966 36.1136 52.5001 36.0425 52.9037 35.9743C56.9004 35.3064 60.6358 33.1549 63.217 30.0308Z" fill="#FDFEFE"/>
<path d="M41.6562 29.4316C42.1615 29.4955 42.5418 29.8468 42.9541 30.1096C43.6031 30.5437 44.3115 30.8776 45.0214 31.1984C45.0084 31.2768 44.9808 31.4365 44.9677 31.5149C43.9704 31.1578 43.0499 30.6177 42.1832 30.0153C41.9597 29.8686 41.7956 29.6552 41.6562 29.4316Z" fill="#FDFEFE"/>
<path d="M57.6643 29.7159C57.856 29.5519 58.0998 29.5127 58.3466 29.5258C57.4422 30.4854 56.201 31.0574 54.996 31.5466C54.9931 31.461 54.9873 31.2882 54.9844 31.2025C55.9324 30.8149 56.8325 30.3126 57.6643 29.7159Z" fill="#FDFEFE"/>
<path d="M38.9688 29.4849C39.4827 29.4443 39.7687 29.9074 40.1171 30.1963C41.4934 31.4274 43.1092 32.3913 44.8411 33.033C45.4131 33.2522 46.0286 33.3698 46.5614 33.6878C46.3248 33.7676 46.0809 33.8954 45.8341 33.7749C43.4881 33.1071 41.3162 31.8629 39.5306 30.205C39.3027 30.0003 39.1212 29.7491 38.9688 29.4849Z" fill="#FDFEFE"/>
<path d="M59.7449 30.3501C60.1499 30.0176 60.4809 29.553 61.0166 29.4238C60.9223 29.6939 60.7815 29.9494 60.5651 30.1395C58.8056 31.8149 56.6367 33.0503 54.311 33.7457C54.0831 33.8125 53.8464 33.8502 53.6098 33.8401C53.6011 33.6078 53.7346 33.4699 53.948 33.4365C56.072 32.8427 58.0768 31.796 59.7449 30.3501Z" fill="#FDFEFE"/>
<path d="M0.15304 41.5842C1.71949 40.9962 3.36723 42.5511 3.33239 44.1132C3.32513 47.1662 3.28158 50.2193 3.31787 53.2723C3.33384 54.1913 3.62855 55.1814 4.38492 55.7635C5.35179 56.4792 6.79774 56.4923 7.75735 55.7548C8.76342 55.0362 9.28024 53.8312 9.51833 52.6553C9.67802 51.4721 9.66496 50.1626 8.97828 49.1333C8.41645 48.2812 7.42635 47.8384 6.45367 47.6584C5.70601 47.4812 4.92642 47.5916 4.18457 47.3941C4.07714 46.9659 3.99584 46.4955 4.2107 46.0847C4.65785 45.1526 5.75828 44.7548 6.73386 44.7345C8.75326 44.6314 10.7581 45.774 11.7163 47.5509C12.4973 49.0303 12.7209 50.7564 12.6135 52.41C12.4581 54.3219 11.8281 56.3137 10.3589 57.6247C8.68212 59.1011 6.28672 59.6687 4.10763 59.2506C2.7633 58.9966 1.52786 58.1705 0.822301 56.9932C0.257567 56.1032 0.00641307 55.0435 0.000606036 53.9967C-0.00229748 50.1699 0.00641227 46.3416 0.002057 42.5148C0.002057 42.1968 0.0804521 41.8891 0.15304 41.5842Z" fill="#231F20"/>
<path d="M65.194 44.8333C67.1191 44.5865 69.227 44.7375 70.8501 45.9076C72.7316 47.2258 73.6215 49.5864 73.6157 51.8236C73.6955 53.8952 73.1061 56.1048 71.576 57.5754C70.2592 58.8791 68.356 59.4075 66.5413 59.3916C65.1243 59.3451 63.6479 58.9415 62.6099 57.9296C61.1291 56.536 60.9767 54.1289 61.8811 52.3825C62.5925 51.028 64.1009 50.26 65.5846 50.1279C66.5834 50.0669 67.5865 50.1192 68.5868 50.0931C68.9294 50.0974 69.288 50.0597 69.6204 50.17C69.9108 50.3718 69.9224 50.7681 69.8818 51.0861C69.783 51.8366 69.2314 52.4754 68.549 52.773C67.5633 53.1534 66.46 52.8427 65.4713 53.194C64.2881 53.6049 64.2838 55.5081 65.3668 56.0424C66.2524 56.5069 67.347 56.3647 68.2253 55.9524C69.8977 55.1466 70.8646 53.2158 70.6831 51.3924C70.6352 50.186 70.0298 48.9433 68.896 48.4192C67.2091 47.6338 65.2899 47.8501 63.4853 47.8153C63.2124 47.8007 62.8393 47.7833 62.7289 47.4843C62.5649 46.831 62.7551 46.0819 63.2588 45.6231C63.7815 45.1339 64.5045 44.9437 65.194 44.8333Z" fill="#231F20"/>
<path d="M18.9629 44.8642C20.2637 44.6334 21.7227 44.6624 22.8435 45.4449C23.491 45.8819 23.8641 46.8096 23.5011 47.5355C23.2906 47.9434 22.7695 47.7721 22.4022 47.7939C20.8081 47.6603 19.1241 48.016 17.8451 49.0104C17.0263 49.6376 16.479 50.6161 16.4311 51.6526C16.3803 52.8953 16.7461 54.1555 17.4531 55.179C17.9801 55.9469 18.8439 56.5378 19.7992 56.5422C20.5758 56.5756 21.3279 56.1749 21.8098 55.5782C22.3397 54.922 22.6432 54.109 22.7898 53.2859C23.0917 51.7775 22.5706 50.2662 22.6461 48.752C22.6373 48.453 22.8551 48.18 23.144 48.1133C23.7 48.0087 24.3098 48.1002 24.7729 48.4443C25.4058 48.8987 25.7078 49.6681 25.8704 50.4027C26.094 51.5336 26.1724 52.7023 26.0591 53.8506C25.5975 55.8264 24.3127 57.6281 22.5256 58.6124C21.5558 59.1568 20.4379 59.4036 19.3288 59.347C17.6143 59.36 15.9389 58.5064 14.8922 57.1577C13.7148 55.658 13.2125 53.7011 13.3083 51.8123C13.3737 49.7015 14.2375 47.5355 15.9259 46.2056C16.8013 45.5059 17.864 45.0573 18.9629 44.8642Z" fill="#231F20"/>
<path d="M30.873 44.8644C32.6877 44.5363 34.6577 44.8266 36.2009 45.8748C37.4683 46.7212 38.2624 48.1308 38.6268 49.587C38.9985 51.0242 38.9114 52.518 38.9288 53.9887C38.9273 55.4448 38.9506 56.9009 38.9404 58.357C38.9361 58.7083 38.8809 59.1976 38.4686 59.2963C37.8109 59.411 37.0836 59.3079 36.5508 58.8811C35.7698 58.2873 35.4228 57.2769 35.4402 56.3202C35.4649 54.8699 35.4301 53.4196 35.5056 51.9707C35.5041 50.9777 35.3938 49.8788 34.694 49.1122C34.0669 48.3849 33.0913 47.9842 32.1331 48.0873C31.4668 48.1366 30.6364 48.3268 30.3678 49.0208C30.2357 49.6058 30.2284 50.2127 30.2458 50.8108C30.3736 53.2251 30.1311 55.6422 30.2676 58.058C30.2763 58.4136 30.2807 58.8288 30.015 59.1047C29.7827 59.3529 29.4183 59.3602 29.1033 59.3428C28.1088 59.2949 27.2494 58.5254 26.9474 57.6007C26.6847 56.8138 26.7384 55.9732 26.7398 55.1559C26.7456 54.2863 26.7253 53.4152 26.7892 52.5485C26.8719 50.8601 26.6222 49.1122 27.1884 47.4834C27.7764 45.9851 29.369 45.1591 30.873 44.8644Z" fill="#231F20"/>
<path d="M42.7629 45.1406C45.0625 44.3653 47.7773 44.7515 49.6573 46.3325C52.2443 43.9908 56.7041 44.2608 59.0081 46.8711C60.2188 48.2604 60.5484 50.1666 60.6427 51.9508C60.7095 54.0239 60.6544 56.0999 60.6573 58.1745C60.6471 58.5592 60.6515 59.031 60.29 59.2705C59.2766 59.558 58.1239 59.0484 57.6042 58.1425C57.2151 57.511 57.1629 56.7488 57.1701 56.0259C57.1847 54.6685 57.2151 53.3111 57.2108 51.9537C57.1977 51.1058 57.1513 50.2072 56.7012 49.4639C56.1757 48.6233 55.219 48.0121 54.2057 48.0833C53.4551 48.0862 52.4868 48.2299 52.1238 48.9819C51.8567 49.9473 51.9307 50.9694 51.9467 51.9609C52.0135 53.9934 51.9612 56.0273 51.9845 58.0598C51.9743 58.4793 52.0193 59.0528 51.5605 59.2633C50.5487 59.5507 49.3248 59.1718 48.8167 58.2078C48.3478 57.4268 48.3028 56.4861 48.326 55.5976C48.3318 54.1865 48.3841 52.7754 48.3638 51.3643C48.3464 50.1985 47.77 48.9776 46.7117 48.4172C46.0264 48.0296 45.1931 48.0165 44.4397 48.1718C43.8067 48.3054 43.1999 48.7975 43.1752 49.4871C42.9081 52.4211 43.2275 55.3682 43.1244 58.308C43.1026 58.5867 43.0779 58.8815 42.9313 59.1297C42.6105 59.4418 42.1198 59.4157 41.7162 59.317C40.7406 59.1268 39.9813 58.2877 39.7476 57.3426C39.5792 56.6748 39.6358 55.9808 39.6285 55.3014C39.6416 53.6566 39.601 52.0117 39.6677 50.3698C39.749 49.3463 39.7418 48.2851 40.1367 47.3197C40.6361 46.2497 41.6857 45.5442 42.7629 45.1406Z" fill="#231F20"/>
<path d="M78.8886 44.8434C80.6336 44.6242 82.4875 44.9987 83.9175 46.0512C85.1907 46.9876 85.9427 48.4902 86.2403 50.016C86.5118 51.2747 86.4493 52.5682 86.4624 53.8472C86.4609 55.3483 86.4798 56.8494 86.474 58.3505C86.4697 58.7062 86.4087 59.1882 86.0007 59.2985C85.3242 59.4205 84.5722 59.3043 84.0351 58.8543C83.3774 58.3099 82.9941 57.4592 82.9927 56.6084C82.9825 54.9171 83.029 53.2258 83.0232 51.5345C83.0217 50.4951 82.6733 49.3859 81.8298 48.7239C80.8833 47.9531 79.494 47.953 78.4269 48.4641C77.9536 48.7138 77.7911 49.2814 77.8085 49.7823C77.8027 52.6872 77.8056 55.5922 77.8012 58.4972C77.8157 58.8282 77.6183 59.1606 77.3076 59.2855C76.7792 59.5221 76.1796 59.3 75.6918 59.0648C74.7119 58.5451 74.2851 57.3808 74.3054 56.3224C74.3155 54.1419 74.317 51.9614 74.3576 49.7808C74.452 48.6528 74.5449 47.4072 75.3463 46.5303C76.258 45.5431 77.5704 44.9958 78.8886 44.8434Z" fill="#231F20"/>
<path d="M91.5948 45.2142C92.9943 44.7235 94.5869 44.5275 96.0023 45.0588C96.6817 45.3129 97.3466 45.8167 97.4962 46.5658C97.5426 46.9171 97.5847 47.3323 97.3437 47.6256C97.0897 47.9232 96.6542 47.7823 96.3159 47.7983C94.6536 47.6589 92.8796 48.0466 91.5861 49.1426C90.7252 49.8613 90.2519 50.9951 90.3201 52.1115C90.3884 53.2671 90.7629 54.4241 91.4699 55.3504C91.9984 56.0385 92.8143 56.5466 93.7013 56.5481C94.5143 56.5843 95.2924 56.1401 95.7744 55.5013C96.3856 54.6985 96.6629 53.6939 96.7674 52.7023C96.8719 51.2201 96.3319 49.735 96.644 48.2614C97.2595 48.0059 97.997 48.0132 98.5647 48.3892C99.2702 48.8334 99.6027 49.6595 99.7711 50.442C100.003 51.5598 100.05 52.7169 99.9555 53.8521C99.459 56.0066 97.9695 57.9606 95.9283 58.8607C94.3125 59.5851 92.3816 59.5619 90.7891 58.7867C89.4912 58.1624 88.4909 57.0213 87.9102 55.7162C87.029 53.7404 86.9709 51.4277 87.6416 49.3807C88.2586 47.4978 89.7148 45.8863 91.5948 45.2142Z" fill="#231F20"/>
<path d="M12.1797 62.5846C13.3251 62.586 14.4706 62.5802 15.6174 62.5889C15.616 62.6978 15.6145 62.917 15.6145 63.0273C14.6274 63.0317 13.6402 63.023 12.653 63.0346C12.653 64.0131 12.653 64.9901 12.653 65.9686C13.5472 65.9759 14.4415 65.9715 15.3358 65.973C15.3358 66.0847 15.3358 66.3083 15.3358 66.4186C14.4415 66.4201 13.5472 66.4172 12.653 66.423C12.653 67.0618 12.653 67.702 12.653 68.3422C12.5354 68.3422 12.2987 68.3408 12.1811 68.3408C12.1797 66.4216 12.1811 64.5023 12.1797 62.5846Z" fill="#231F20"/>
<path d="M28.4844 62.6148C28.6499 62.5974 28.8168 62.5829 28.9838 62.5684C28.9823 63.6252 28.9954 64.6836 28.9751 65.7404C29.5659 65.3833 30.5023 65.3325 30.8435 66.0482C31.0598 66.7886 30.903 67.5827 30.9451 68.3449C30.8319 68.3435 30.6068 68.342 30.4936 68.342C30.4762 67.5508 30.5909 66.7349 30.3209 65.9727C29.8911 65.9437 29.3061 65.8493 29.0825 66.3313C28.888 66.9817 29.0201 67.6814 28.9852 68.3536C28.8183 68.3405 28.6513 68.3289 28.4858 68.3173C28.4945 66.417 28.4887 64.5152 28.4844 62.6148Z" fill="#231F20"/>
<path d="M63.7578 62.5935C64.6419 62.595 65.6204 62.4643 66.3971 62.9884C67.3001 63.5793 67.4598 64.8757 67.0286 65.8005C66.8022 66.2708 66.3463 66.5539 65.9093 66.8051C66.3492 67.3132 66.7775 67.8329 67.2159 68.3439C67.001 68.3381 66.7876 68.3352 66.5757 68.3309C66.1793 67.8518 65.7758 67.3771 65.3794 66.898C65.0049 66.9111 64.6318 66.9227 64.2587 66.9328C64.2601 67.4047 64.2601 67.8765 64.2587 68.3497C64.1338 68.3439 63.8827 68.3323 63.7578 68.3265C63.7607 66.416 63.7593 64.5055 63.7578 62.5935ZM64.263 63.0203C64.2587 64.1687 64.2587 65.317 64.263 66.4654C64.9642 66.4436 65.7859 66.5292 66.3289 65.9848C66.9502 65.3257 66.9372 64.1542 66.3129 63.5023C65.7641 62.987 64.9613 63.0291 64.263 63.0203Z" fill="#231F20"/>
<path d="M86.5452 63.9808C86.6599 63.9765 86.8922 63.9692 87.0083 63.9648C87.0417 64.4875 87.0402 65.013 87.0417 65.5386C87.258 65.5371 87.4772 65.5356 87.6964 65.5371C87.6964 65.6474 87.6964 65.8681 87.6964 65.9799C87.4758 65.9784 87.2565 65.977 87.0388 65.9784C87.0388 66.6506 87.0286 67.3242 87.0591 67.9964C87.2565 67.9441 87.4525 67.8918 87.6514 67.8396C87.7008 67.9456 87.8024 68.1561 87.8518 68.2606C87.4714 68.4159 87.0707 68.4232 86.6846 68.2882C86.4987 67.5333 86.5394 66.7537 86.5466 65.9842C86.4595 65.9813 86.2839 65.977 86.1953 65.9741C86.1953 65.8667 86.1968 65.6489 86.1968 65.54C86.2839 65.5385 86.4581 65.5356 86.5452 65.5342C86.5437 65.0159 86.5437 64.4976 86.5452 63.9808Z" fill="#231F20"/>
<path d="M17.25 65.5519C17.8351 65.5707 18.4201 65.4488 19.0023 65.5635C18.8208 66.1805 17.9672 65.7493 17.7872 66.3576C17.6216 67.0022 17.7363 67.683 17.7088 68.3436C17.5549 68.3421 17.4024 68.3421 17.25 68.3436C17.25 67.413 17.2515 66.4824 17.25 65.5519Z" fill="#231F20"/>
<path d="M20.5163 66.0201C20.9635 65.4046 21.9521 65.2739 22.5139 65.8038C22.8972 66.1218 22.9654 66.6415 23.0641 67.0988C22.2483 67.1104 21.4324 67.0886 20.6179 67.1206C20.8067 67.4487 20.9722 67.8842 21.399 67.9524C21.8664 68.1063 22.2976 67.8276 22.6533 67.5575C22.7477 67.6722 22.842 67.7884 22.9378 67.906C22.4442 68.3038 21.7837 68.5926 21.1536 68.3371C20.2202 68.0453 19.8906 66.7518 20.5163 66.0201ZM20.6455 66.6662C21.2886 66.6879 21.9347 66.6894 22.5793 66.6662C22.3862 66.3265 22.151 65.8808 21.6879 65.9287C21.1769 65.8343 20.8517 66.2698 20.6455 66.6662Z" fill="#231F20"/>
<path d="M24.6858 66.3592C24.5188 65.2864 26.4148 65.1427 26.4903 66.1734C26.0388 66.2373 25.6584 65.8439 25.1895 65.9281C25.1968 66.1313 25.1242 66.4565 25.4015 66.5175C25.8762 66.7527 26.6268 66.8427 26.7037 67.4873C26.7966 68.0956 26.1346 68.4962 25.5946 68.4236C25.0705 68.4382 24.7061 68.0317 24.4375 67.6368C24.5319 67.5903 24.7235 67.4974 24.8179 67.4524C24.9848 67.6107 25.1358 67.7921 25.3303 67.9213C25.6454 68.0665 25.9822 67.8967 26.2943 67.8313C26.2391 66.8862 24.8672 67.2245 24.6858 66.3592Z" fill="#231F20"/>
<path d="M32.9263 65.4824C33.1107 65.5405 33.2921 65.6044 33.4722 65.677C34.0398 65.3924 34.8963 65.3619 35.2244 66.0109C35.4916 66.7585 35.3174 67.5759 35.3624 68.3525C35.1969 68.3409 35.0314 68.3279 34.8673 68.3177C34.8397 67.5323 34.9893 66.7092 34.6974 65.9571C34.2677 65.9455 33.6493 65.8555 33.4722 66.3724C33.2994 67.0097 33.417 67.6876 33.3894 68.3424C33.2312 68.3424 33.0729 68.3424 32.9161 68.3438C32.919 67.39 32.9045 66.4362 32.9263 65.4824Z" fill="#231F20"/>
<path d="M37.2938 67.6994C36.7015 66.7499 37.5043 65.3214 38.6555 65.4811C39.4961 65.5087 39.9026 66.3608 39.9563 67.0983C39.1404 67.1143 38.326 67.0838 37.5116 67.1288C37.7046 67.4801 37.9093 67.9316 38.371 67.9679C38.8167 68.0884 39.2101 67.8169 39.5411 67.5571C39.6181 67.6282 39.769 67.7734 39.846 67.846C39.1956 68.6328 37.8019 68.6372 37.2938 67.6994ZM37.5232 66.6643C38.1765 66.6904 38.8298 66.6904 39.4845 66.6672C39.2813 66.3071 39.0127 65.8571 38.5263 65.9282C38.0356 65.8629 37.7598 66.3202 37.5232 66.6643Z" fill="#231F20"/>
<path d="M41.621 66.3277C41.5194 65.7746 42.1117 65.3943 42.6068 65.4785C43.0205 65.4669 43.2688 65.84 43.533 66.0955C43.2122 66.3031 42.9378 66.1753 42.707 65.9256C42.4006 65.9546 41.952 65.9038 42.0624 66.364C42.495 66.6631 43.0655 66.7212 43.4532 67.0899C43.7725 67.5167 43.5766 68.2426 43.0234 68.3646C42.3527 68.6143 41.6922 68.2107 41.3438 67.6489C41.4396 67.5995 41.6283 67.5022 41.7227 67.4529C41.907 67.6256 42.0711 67.8405 42.3092 67.945C42.5966 68.0394 42.8913 67.9044 43.173 67.8535C43.247 66.8678 41.7023 67.2424 41.621 66.3277Z" fill="#231F20"/>
<path d="M45.3924 65.8316C45.6871 65.6545 45.9949 65.4208 46.3622 65.4774C46.7498 65.4716 46.998 65.8026 47.2565 66.0421C47.1461 66.1045 46.924 66.2323 46.8137 66.2962C46.7498 66.2076 46.6206 66.0291 46.5567 65.9405C46.3288 65.9449 46.1023 65.9521 45.8773 65.9637C45.8584 66.1104 45.841 66.2584 45.825 66.408C46.3593 66.7012 47.2623 66.7666 47.3697 67.4982C47.4728 68.304 46.429 68.6233 45.8236 68.3257C45.4737 68.182 44.983 67.7494 45.4055 67.3879C45.5898 67.5563 45.7568 67.7508 45.9629 67.8975C46.2649 68.0789 46.6148 67.9062 46.9284 67.851C46.8906 67.6855 46.8776 67.5128 46.8064 67.3603C46.3985 67.0584 45.8207 67.0366 45.4824 66.6388C45.3489 66.3949 45.4142 66.0973 45.3924 65.8316Z" fill="#231F20"/>
<path d="M52.7976 65.5084C53.8386 65.2224 54.8562 66.3388 54.5267 67.3536C54.2915 68.348 52.9298 68.7821 52.1806 68.0736C51.2806 67.3594 51.658 65.7232 52.7976 65.5084ZM52.802 65.9657C52.0645 66.1994 51.9121 67.2839 52.4971 67.763C53.0154 68.2435 53.9634 67.9168 54.0679 67.2156C54.3031 66.4723 53.5555 65.684 52.802 65.9657Z" fill="#231F20"/>
<path d="M56.9152 65.6809C57.2418 65.5589 57.5888 65.4181 57.9445 65.498C58.4076 65.5662 58.7792 66.0032 58.7807 66.4721C58.8126 67.0949 58.7851 67.7191 58.7894 68.3434C58.6355 68.3419 58.4816 68.342 58.3292 68.342C58.3219 67.7192 58.364 67.0934 58.3074 66.4721C58.2915 65.6765 56.9616 65.797 56.8644 66.491C56.7642 67.1051 56.8208 67.7293 56.8107 68.3478C56.6916 68.3434 56.4535 68.3347 56.3359 68.3303C56.3417 67.3823 56.3301 66.4343 56.3446 65.4878C56.5363 65.5401 56.7294 65.6054 56.9152 65.6809Z" fill="#231F20"/>
<path d="M68.9106 66.0848C69.3374 65.4083 70.3856 65.2602 70.9706 65.8133C71.351 66.1269 71.4076 66.6423 71.4816 67.0981C70.6745 67.1126 69.8673 67.0894 69.0616 67.1199C69.2416 67.4698 69.4303 67.914 69.8804 67.9634C70.3348 68.094 70.7456 67.8225 71.0882 67.5612C71.1652 67.6324 71.319 67.7761 71.3974 67.8472C70.9343 68.3002 70.2607 68.5934 69.6205 68.3452C68.7044 68.0693 68.3473 66.8382 68.9106 66.0848ZM69.0717 66.6669C69.7207 66.6902 70.3711 66.6887 71.0214 66.6684C70.824 66.3461 70.6208 65.8946 70.1664 65.9309C69.6394 65.8191 69.3069 66.275 69.0717 66.6669Z" fill="#231F20"/>
<path d="M73.6804 65.8132C74.0273 65.6346 74.3917 65.4183 74.7997 65.4793C75.5125 65.5272 76.115 66.1877 76.083 66.9064C76.1542 67.6918 75.4646 68.435 74.6763 68.4263C74.3148 68.4452 74.0041 68.2391 73.692 68.091C73.7021 68.7559 73.6978 69.4208 73.6978 70.0871C73.586 70.0871 73.3624 70.0886 73.2506 70.0901C73.2506 68.5701 73.2492 67.0515 73.2506 65.533C73.3639 65.5344 73.5904 65.5373 73.7036 65.5388C73.6978 65.607 73.6862 65.7449 73.6804 65.8132ZM74.2988 65.9787C73.4408 66.2705 73.496 67.7237 74.3816 67.9444C75.0203 68.1563 75.6925 67.5727 75.6228 66.9165C75.6635 66.2313 74.926 65.7362 74.2988 65.9787Z" fill="#231F20"/>
<path d="M77.979 66.0125C78.4464 65.3607 79.5106 65.2779 80.0521 65.8804C80.37 66.2042 80.4281 66.6745 80.5181 67.0984C79.7051 67.1101 78.8921 67.0897 78.0791 67.1202C78.2563 67.4614 78.4348 67.8998 78.8733 67.9564C79.3393 68.1016 79.7617 67.8171 80.116 67.5499C80.2074 67.6675 80.3003 67.7851 80.3933 67.9056C79.8968 68.3049 79.2333 68.5981 78.6018 68.331C77.6756 68.0319 77.3547 66.7399 77.979 66.0125ZM78.0922 66.6658C78.7383 66.6876 79.3857 66.689 80.0318 66.6658C79.8343 66.3348 79.6253 65.8848 79.1622 65.9283C78.6468 65.8281 78.3114 66.2709 78.0922 66.6658Z" fill="#231F20"/>
<path d="M82.3762 65.9195C82.8945 65.2691 84.1866 65.301 84.4145 66.1982C84.5248 66.9125 84.445 67.6427 84.4595 68.3643C84.265 68.3381 84.0748 68.3149 83.8846 68.2902C83.4026 68.4296 82.8263 68.524 82.414 68.1683C81.9523 67.83 81.9959 67.0344 82.5054 66.763C82.9918 66.5292 83.5536 66.6091 84.0777 66.5539C83.9311 66.3202 83.8628 65.918 83.5115 65.934C83.1079 65.8353 82.7958 66.1315 82.52 66.3739C82.337 66.3144 82.1643 66.0545 82.3762 65.9195ZM82.594 67.152C82.5911 67.3829 82.5911 67.6137 82.594 67.846C83.015 67.9839 83.4549 67.9839 83.8759 67.8416C83.934 67.5629 83.9833 67.2812 84.0298 67.0011C83.5464 66.9996 83.0644 67.0388 82.594 67.152Z" fill="#231F20"/>
</svg>
